<svg width="69" height="69" viewBox="0 0 69 69" fill="none" xmlns="http://www.w3.org/2000/svg">
<defs>
    <style>
      path {
        fill: #111827;
        transition: fill .4s ease;
      }
      @media (prefers-color-scheme:dark) {
        path {
          fill: #818cf8;
        }
      }
    </style>
</defs>
<path fill-rule="evenodd" clip-rule="evenodd" d="M68.6522 34.663C68.6522 53.5066 53.3762 68.7826 34.5326 68.7826C15.6889 68.7826 0.413086 53.5066 0.413086 34.663C0.413086 15.8193 15.6889 0.543472 34.5326 0.543472C53.3762 0.543472 68.6522 15.8193 68.6522 34.663ZM17.4899 24.4272C17.4899 22.5506 19.0082 21.0152 20.8848 21.0152H48.1805C50.0571 21.0152 51.5924 22.5506 51.5924 24.4272V44.8989C51.5924 46.7755 50.0571 48.3109 48.1805 48.3109H20.8848C19.0082 48.3109 17.4729 46.7755 17.4729 44.8989L17.4899 24.4272ZM34.5326 36.369L20.8849 27.839V44.8989H48.1805V27.839L34.5326 36.369ZM34.5326 32.9571L20.8849 24.4272H48.1805L34.5326 32.9571Z" fill="none"/>
</svg>
